# xmcd
#
# Track frame offsets: 
#        182
#        18185
#        53217
#        69250
#        98305
#        140945
#        159817
#        175880
#        195572
#        216217
#        233227
#        248182
#        268522
#        305745
#        324040
#
# Disc length: 4673 seconds
#
# Revision: 6
# Processed by: cddbd v1.5.2PL0 Copyright (c) Steve Scherf et al.
# Submitted via: ExactAudioCopy v0.99pb5
#
DISCID=c3123f0f
DTITLE=Various Artist - The J.B.'s - Funky Good Time: The Anthology (
DTITLE=Disc 2)
DYEAR=1995
DGENRE=Funk
TTITLE0=The J.B.'s - Gimme Some More (Very Live)
TTITLE1=Fred Wesley and The J.B.'s - Same Beat (Parts 1, 2 and 3)
TTITLE2=Fred Wesley and The J.B.'s - If You Don't Get It The First Time,
TTITLE2=Back Up And Try It Again, Party
TTITLE3=Fred Wesley and The J.B.'s - Damn Right I Am Somebody
TTITLE4=Fred Wesley and The J.B.'s - I'm Payin' Taxes, What Am I Buyin'
TTITLE5=Maceo And The Macks - Soul Power '74
TTITLE6=The Last Word - Keep On Bumpin' Before You Give Out Of Gas
TTITLE7=Fred Wesley and The New J.B.'s - Breakin' Bread
TTITLE8=Fred Wesley and The New J.B.'s - Rockin' Funky Watergate
TTITLE9=The First Family - Control (People Go Where We Send You Part 1
TTITLE9=)
TTITLE10=Maceo And The Macks - Cross The Track (We Better Go Back)
TTITLE11=The J.B.'s - All Aboard The Soul Funky Train
TTITLE12=The J.B.'s - (It's Not The Express) It's The J.B.'s Monaurail
TTITLE13=Maceo - Future Shock (Dance Your Pants Off)
TTITLE14=The J.B.'s With James Brown - Everybody Wanna Get Funky One M
TTITLE14=ore Time (Part 1)
EXTD=YEAR: 1995
EXTT0=
EXTT1=
EXTT2=
EXTT3=
EXTT4=
EXTT5=
EXTT6=
EXTT7=
EXTT8=
EXTT9=
EXTT10=
EXTT11=
EXTT12=
EXTT13=
EXTT14=
PLAYORDER=
